<svg id="Livello_1" data-name="Livello 1" xmlns="http://www.w3.org/2000/svg" viewBox="0 0 400 400">
  <defs>
    <style>
      .cls-1 {
        fill: #ccc2c0;
      }
    </style>
  </defs>
  <g>
    <circle class="cls-1" cx="200" cy="200" r="195.68"/>
    <path d="M125.44,182.93c9.76-.65,13.93-5.55,15.05-14.42,3.63-28.76,7.75-57.46,11.55-86.2,1.14-8.6,1.86-17.25,3.23-25.87,5,38.79,6.21,78,14.59,116.09,13.07.9,14.06,1,15.69-10.52,3.84-27.4,7-54.92,9.73-82.46,1.91-19.5,2.61-39.12,3.84-58.69l1.63,0c.84,10.89,1.66,21.78,2.53,32.66,2.2,27.62,4.25,55.26,6.76,82.86a213.23,213.23,0,0,0,4.39,25.76c2.46,11.32,3,11.47,16.75,10.23,2.48-19,5.28-38.35,7.47-57.78,2.17-19.28,3.73-38.62,6.65-58,1.35,13,2.41,26,4.12,38.89,3.24,24.41,7.07,48.75,10.19,73.18,1.14,9,5.53,13.56,15,14.37,9.69-27.61,10-57.08,16.42-85.67.71,6.44,1.43,12.88,2.12,19.32.72,6.73,1.5,13.45,2.07,20.19,1.71,20.23,3.2,40.48,5.1,60.69.47,5-.58,7.53-5.58,9.81-43,19.66-68.85,54.3-81.65,98.55-5.77,19.94-7.51,41.05-11,61.64-.65,3.84-1,7.73-2.7,11.64-.89-8.74-1.7-17.49-2.68-26.22-4.61-41.34-16.43-79.81-44.83-111.61-13.28-14.87-28.86-26.66-47.31-34.39-3.85-1.61-5.31-3.5-4.91-7.71,3.19-33.68,6.2-67.37,9.29-101,0-.35.35-.67,1.24-2.26C115.49,125.57,115.81,155,125.44,182.93Z"/>
  </g>
</svg>
